<svg xmlns="http://www.w3.org/2000/svg" x="0px" y="0px"
     width="50" height="50"
     viewBox="0 0 252 252"
     style="fill:#000000;"><g fill="none" fill-rule="nonzero" stroke="none" stroke-width="1" stroke-linecap="butt" stroke-linejoin="miter" stroke-miterlimit="10" stroke-dasharray="" stroke-dashoffset="0" font-family="none" font-weight="none" font-size="none" text-anchor="none" style="mix-blend-mode: normal"><path d="M0,252v-252h252v252z" fill="none"></path><g id="Layer_1"><path d="M81.50625,67.63575c12.36375,-9.45 27.762,-15.13575 44.49375,-15.13575c15.9915,0 30.75975,5.19225 42.83475,13.8915l20.16525,-24.192c-17.577,-13.24575 -39.34875,-21.1995 -63,-21.1995c-24.71175,0 -47.418,8.63625 -65.373,22.974z" fill="#f97f00"></path><path d="M197.064,48.92475l-20.15475,24.1815c13.89675,13.38225 22.59075,32.12475 22.59075,52.89375c0,40.53 -32.97,73.5 -73.5,73.5c-40.53,0 -73.5,-32.97 -73.5,-73.5c0,-20.0235 8.06925,-38.18325 21.09975,-51.45l-20.853,-23.6355c-19.551,19.08375 -31.74675,45.66975 -31.74675,75.0855c0,57.897 47.103,105 105,105c57.897,0 105,-47.103 105,-105c0,-30.47625 -13.13025,-57.876 -33.936,-77.07525z" fill="#cccccc"></path><g id="Layer_3" fill="#cccccc"><path d="M173.25,189l-42,-42v-68.25l15.75,42l47.25,47.25z"></path></g><g id="Layer_3_2_" fill="#cccccc"><path d="M78.75,189l42,-42v-68.25l-15.75,42l-47.25,47.25z"></path></g></g></g></svg>